<svg id="Layer_1" data-name="Layer 1" xmlns="http://www.w3.org/2000/svg" viewBox="0 0 400 400"><defs><style>.cls-1{fill:#ffe5cc;}.cls-2{fill:#ee2435;}.cls-3{fill:#231f20;}.cls-4{fill:#ec1d24;}.cls-5{fill:#f6f4b5;}.cls-6,.cls-7,.cls-8,.cls-9{fill:none;stroke:#231f20;stroke-miterlimit:10;}.cls-6{stroke-width:0.5px;}.cls-7{stroke-width:0.25px;}.cls-8{stroke-width:0.1px;}.cls-10{fill:#ee2536;}</style></defs><path class="cls-1" d="M315.55,227.44a3,3,0,0,1,.35,3.26,33.85,33.85,0,0,1-1.8,3,15.86,15.86,0,0,0-1.4,6.6L312,252l-1,.09c-5.62,1.14-11.33-.92-16.74-2.82-.44-.15-1-.28-1.31.07l-.64-.82a37,37,0,0,1-4.65-10.17c-.45-1.58-.48-3.79,1.08-4.29a2.7,2.7,0,0,1,2.42.7,5.8,5.8,0,0,1,.52.47,16.9,16.9,0,0,0,1.86,4.77,6.52,6.52,0,0,0-1.86-4.77,46.81,46.81,0,0,1-1-7,9,9,0,0,1,.18-3.47,3,3,0,0,1,2.48-2.17c1.86.91,2.35,3.33,2.3,5.4s-.36,4.28.68,6.07a129.19,129.19,0,0,1,1.92-13.12,5.09,5.09,0,0,1,.91-2.37,1.81,1.81,0,0,1,2.29-.51,2.33,2.33,0,0,1,.78,1.29c1.21,4-.82,8.56.53,12.56A10.41,10.41,0,0,1,308,220.72a1.24,1.24,0,0,1,.78-.19,1.14,1.14,0,0,1,.68.54c1.26,1.84.91,4.32.26,6.45s-1.56,4.31-1.23,6.51a10,10,0,0,1,2.31-5.43C312,227.2,314.25,226.17,315.55,227.44Z"/><path class="cls-2" d="M192.06,258.94l.62,0a4.56,4.56,0,0,0,5.52,2.76,5.78,5.78,0,0,0,3.87-5.14,7.84,7.84,0,0,0-2.65-6.07,2.64,2.64,0,0,0-1.82-.87,2.69,2.69,0,0,0-1.44.66A10.67,10.67,0,0,0,192.06,258.94Zm64.09-47.06,2.11.29c7.1.89,11.1,7.89,12.1,13.89,1,21.83-2.94,43.66-4.17,65.88l.39,0A67.79,67.79,0,0,0,291,259.05l.67-.59c2.2,1.81,5.1,2.44,7.89,3,2.55.53,8.28.63,10.88.84-.41,12.32-6.19,24-14.08,33.48s-17.81,17-27.8,24.27a17.66,17.66,0,0,1-6.21,3.33c-3.52.81-7.25-.59-10.06-2.86s-4.86-5.32-6.87-8.32l-.84,0c-2.38-6.81-1.94-14.23-1.48-21.43.23-3.51.45-7,.68-10.54l-.27,0a217.16,217.16,0,0,0-5.32,65.38L147.5,335.31q0-32.07-1.34-64.12a81.3,81.3,0,0,1-9.47,28.32l-.68.2A202.08,202.08,0,0,0,126.74,331h-.15q-9.59-.35-19.19-.3v-.55a183.41,183.41,0,0,1,6.29-31.38l.68-1.22a546.25,546.25,0,0,0,19.4-76.08c.6-3.35,1.22-6.84,3.17-9.63a12,12,0,0,1,16.43-2.6l1.1-.37a38.43,38.43,0,0,1-1.43-8.1,18.45,18.45,0,0,1,.38-5.84,12.46,12.46,0,0,1,11.64-9l.94-2.12a61.93,61.93,0,0,0,9.68,6.15l0,.06a7.39,7.39,0,0,0-9.65,4.72c-.76,3-1.42,5.49-.24,8.32.7,1.66,1.39,4.84,2.48,6.26,3,4,4.47,5.14,8.48,6.45,12.32,1.66,24.26,5.92,36.41,5a51.11,51.11,0,0,0,21.44-6.58A43.36,43.36,0,0,0,249,200.84c1.15-1.71,2.21-3.65,2.11-5.71s-1.82-4.16-3.88-3.95l-2.63-.06a48.74,48.74,0,0,0,6.43-7.2l2.3.51a6.07,6.07,0,0,1,5.75,2.24,15.22,15.22,0,0,1,2.77,5.82c1,3.44,1.76,7.14.74,10.58S258.81,209.32,256.15,211.88Zm-64.07,84.27a14,14,0,0,0,16.39,4c-7.24-3.37-10.93-12.31-9.38-20.13a41.25,41.25,0,0,0,1.06-5.47,6,6,0,0,0-1.84-5c-1.44-1.17-5.62-.09-6.52,1.54a52.48,52.48,0,0,0-3,12.74C188.51,288.11,189.39,292.7,192.08,296.15Z"/><path class="cls-3" d="M268.71,130.82a67.57,67.57,0,0,1-1.92,18.74l-.21-.05c-1.23.89-6.45,2.26-8,2.46l-3.15-10.25-5,.8a69.92,69.92,0,0,0,1.41-18.76l-10.64,8.41a1.76,1.76,0,0,1-.94.47c-.89.05-1.27-1.1-1.36-2q-.35-3.48-.7-7a13,13,0,0,0-6,3.72,15.5,15.5,0,0,1-.9-5.61,108.74,108.74,0,0,0-12.4,6.78l-2.7-8.08c-.31-.94-.85-2.07-1.85-2.08a2.5,2.5,0,0,0-1.43.63l-5.61,4.16c-1-2-3.6-2.74-5.78-2.26a15.19,15.19,0,0,0-5.78,3.28c.21-2-2.52-3.08-4.44-2.48s-3.44,2.13-5.35,2.77-4.65-.33-4.56-2.34q-2.52,2.14-5.06,4.27a33.42,33.42,0,0,0-4.62-10.32,216.49,216.49,0,0,1-10.64,22.28l-2.86-3.47a15,15,0,0,1-3.31,5.42l-2.31-3.55c-1.12,2.29-2.24,4.59-3.35,6.88-1.08-1.35-3.06-2.32-3.26-4h-.34a64.23,64.23,0,0,1,10-33c3.83-6,8.72-11.47,15-14.85a49.33,49.33,0,0,1,14.22-4.59,131.19,131.19,0,0,1,39.5-1.58c8,.9,16.08,2.6,23,6.65C260.64,100,268,115.51,268.71,130.82Z"/><path class="cls-1" d="M266.58,149.51l.21.05a104.76,104.76,0,0,1-9.91,25.09,76.7,76.7,0,0,1-5.82,9.27,48.74,48.74,0,0,1-6.43,7.2c-4.41,4-9.56,6.82-15.49,7.44-1.45.24-2.88.43-4.3.57-11.83,1.21-22.88-.75-34.71-3.77a69.07,69.07,0,0,1-14.45-5.46,61.93,61.93,0,0,1-9.68-6.15,54.12,54.12,0,0,1-9.87-10c-7.37-9.76-10.69-21.92-10.43-34.15H146c.2,1.72,2.18,2.69,3.26,4,1.11-2.29,2.23-4.59,3.35-6.88l2.31,3.55a15,15,0,0,0,3.31-5.42l2.86,3.47a216.49,216.49,0,0,0,10.64-22.28,33.42,33.42,0,0,1,4.62,10.32q2.54-2.13,5.06-4.27c-.09,2,2.65,3,4.56,2.34s3.43-2.17,5.35-2.77,4.65.48,4.44,2.48a15.19,15.19,0,0,1,5.78-3.28c2.18-.48,4.8.26,5.78,2.26l5.61-4.16a2.5,2.5,0,0,1,1.43-.63c1,0,1.54,1.14,1.85,2.08l2.7,8.08a108.74,108.74,0,0,1,12.4-6.78,15.5,15.5,0,0,0,.9,5.61,13,13,0,0,1,6-3.72q.36,3.48.7,7c.09.89.47,2,1.36,2a1.76,1.76,0,0,0,.94-.47l10.64-8.41a69.92,69.92,0,0,1-1.41,18.76l5-.8L258.62,152C260.13,151.77,265.35,150.4,266.58,149.51Z"/><path class="cls-4" d="M251.14,195.13c.1,2.06-1,4-2.11,5.71a43.36,43.36,0,0,1-14.46,13.27l-5.21-9.39a7,7,0,0,1-4.3-3.6l-.22-2c1.42-.14,2.85-.33,4.3-.57,5.93-.62,11.08-3.44,15.49-7.44l2.63.06C249.32,191,251,193.07,251.14,195.13Z"/><path class="cls-1" d="M225.06,201.12a7,7,0,0,0,4.3,3.6l5.21,9.39a51.11,51.11,0,0,1-21.44,6.58c-12.15.94-24.09-3.32-36.41-5-4-1.31-5.45-2.49-8.48-6.45-1.09-1.42-1.78-4.6-2.48-6.26-1.18-2.83-.52-5.35.24-8.32a7.39,7.39,0,0,1,9.65-4.72l0-.06a69.07,69.07,0,0,0,14.45,5.46c11.83,3,22.88,5,34.71,3.77Z"/><path class="cls-5" d="M208.47,300.11a14,14,0,0,1-16.39-4c-2.69-3.45-3.57-8-3.28-12.4a52.48,52.48,0,0,1,3-12.74c.9-1.63,5.08-2.71,6.52-1.54a6,6,0,0,1,1.84,5,41.25,41.25,0,0,1-1.06,5.47C197.54,287.8,201.23,296.74,208.47,300.11Z"/><path class="cls-5" d="M199.42,250.47a7.84,7.84,0,0,1,2.65,6.07,5.78,5.78,0,0,1-3.87,5.14,4.56,4.56,0,0,1-5.52-2.76l-.62,0a10.67,10.67,0,0,1,4.1-8.68,2.69,2.69,0,0,1,1.44-.66A2.64,2.64,0,0,1,199.42,250.47Z"/><path class="cls-1" d="M123.83,341.49a16.73,16.73,0,0,1,1.6,11.63c-.16.7-.53,1.53-1.25,1.55a1.79,1.79,0,0,1-1.15-.62l-3.17-3a17.89,17.89,0,0,1,.41,6.09,6,6,0,0,1-3.45,4.74c-1.23-.89-1.45-2.61-1.38-4.12s.31-3.12-.36-4.47a16.79,16.79,0,0,1-2.89,9.91,1.53,1.53,0,0,1-.86.73,1.33,1.33,0,0,1-1.12-.53c-2.13-2.37-.26-6.24-1.25-9.28a9.7,9.7,0,0,1-1.17,6.22c-.34.59-.91,1.21-1.57,1.08a1.43,1.43,0,0,1-.76-.52c-1.46-1.65-1.29-4.15-.85-6.3a39.39,39.39,0,0,1,1.89-6.39,8.41,8.41,0,0,1-3.77,4.49c-.65.37-1.71.49-1.93-.22a1.31,1.31,0,0,1,0-.65A24.69,24.69,0,0,1,106,341.14l1.23-2a1.32,1.32,0,0,0,.52.08l15.74.27Z"/><path class="cls-6" d="M229.14,198.56c-1.45.24-2.88.43-4.3.57-11.83,1.21-22.88-.75-34.71-3.77a69.07,69.07,0,0,1-14.45-5.46,61.93,61.93,0,0,1-9.68-6.15,54.12,54.12,0,0,1-9.87-10c-7.37-9.76-10.69-21.92-10.43-34.15a64.23,64.23,0,0,1,10-33c3.83-6,8.72-11.47,15-14.85a49.33,49.33,0,0,1,14.22-4.59,131.19,131.19,0,0,1,39.5-1.58c8,.9,16.08,2.6,23,6.65,13.24,7.71,20.64,23.26,21.31,38.57a67.57,67.57,0,0,1-1.92,18.74,104.76,104.76,0,0,1-9.91,25.09,76.7,76.7,0,0,1-5.82,9.27,48.74,48.74,0,0,1-6.43,7.2c-4.41,4-9.56,6.82-15.49,7.44"/><path class="cls-6" d="M146,139.65c.2,1.72,2.18,2.69,3.26,4,1.11-2.29,2.23-4.59,3.35-6.88l2.31,3.55a15,15,0,0,0,3.31-5.42l2.86,3.47a216.49,216.49,0,0,0,10.64-22.28,33.42,33.42,0,0,1,4.62,10.32q2.54-2.13,5.06-4.27c-.09,2,2.65,3,4.56,2.34s3.43-2.17,5.35-2.77,4.65.48,4.44,2.48a15.19,15.19,0,0,1,5.78-3.28c2.18-.48,4.8.26,5.78,2.26l5.61-4.16a2.5,2.5,0,0,1,1.43-.63c1,0,1.54,1.14,1.85,2.08l2.7,8.08a108.74,108.74,0,0,1,12.4-6.78,15.5,15.5,0,0,0,.9,5.61,13,13,0,0,1,6-3.72q.36,3.48.7,7c.09.89.47,2,1.36,2a1.76,1.76,0,0,0,.94-.47l10.64-8.41a69.92,69.92,0,0,1-1.41,18.76l5-.8L258.62,152c1.51-.2,6.73-1.57,8-2.46"/><path class="cls-6" d="M177,145.13a25.74,25.74,0,0,1,11.28-5.44"/><path class="cls-6" d="M218.82,140.41a11.72,11.72,0,0,1,10.94,1.43"/><path class="cls-6" d="M194.23,171.06a14.79,14.79,0,0,0,9.88,4.28A28.92,28.92,0,0,0,215,173.62"/><path class="cls-6" d="M196.13,198.71a89.24,89.24,0,0,1-8.26,8.47"/><path class="cls-6" d="M224.9,200.77a3.73,3.73,0,0,0,.16.35,7,7,0,0,0,4.3,3.6"/><path class="cls-6" d="M175.65,190a7.39,7.39,0,0,0-9.65,4.72c-.76,3-1.42,5.49-.24,8.32.7,1.66,1.39,4.84,2.48,6.26,3,4,4.47,5.14,8.48,6.45"/><path class="cls-6" d="M247.26,191.18c2.06-.21,3.77,1.89,3.88,3.95s-1,4-2.11,5.71a43.36,43.36,0,0,1-14.46,13.27,51.11,51.11,0,0,1-21.44,6.58c-12.15.94-24.09-3.32-36.41-5"/><path class="cls-6" d="M165.06,185.87a12.46,12.46,0,0,0-11.64,9,18.45,18.45,0,0,0-.38,5.84,38.43,38.43,0,0,0,1.43,8.1,39.06,39.06,0,0,0,10.92,17.74"/><path class="cls-6" d="M253.36,184.43a6.07,6.07,0,0,1,5.75,2.24,15.22,15.22,0,0,1,2.77,5.82c1,3.44,1.76,7.14.74,10.58s-3.81,6.25-6.47,8.81L243.59,224"/><path class="cls-6" d="M153.37,209.23a12,12,0,0,0-16.43,2.6c-1.95,2.79-2.57,6.28-3.17,9.63a546.25,546.25,0,0,1-19.4,76.08"/><path class="cls-6" d="M258.26,212.17c7.1.89,11.1,7.89,12.1,13.89,1,21.83-2.94,43.66-4.17,65.88l0,.52"/><path class="cls-6" d="M192.06,259v-.08a10.67,10.67,0,0,1,4.1-8.68,2.69,2.69,0,0,1,1.44-.66,2.64,2.64,0,0,1,1.82.87,7.84,7.84,0,0,1,2.65,6.07,5.78,5.78,0,0,1-3.87,5.14,4.56,4.56,0,0,1-5.52-2.76"/><path class="cls-6" d="M191.79,271c.9-1.63,5.08-2.71,6.52-1.54a6,6,0,0,1,1.84,5,41.25,41.25,0,0,1-1.06,5.47c-1.55,7.82,2.14,16.76,9.38,20.13a14,14,0,0,1-16.39-4c-2.69-3.45-3.57-8-3.28-12.4A52.48,52.48,0,0,1,191.79,271Z"/><path class="cls-6" d="M146.79,264.65q-.18,3.28-.63,6.54a81.3,81.3,0,0,1-9.47,28.32"/><path class="cls-6" d="M244.72,265.77q-.47,7.28-.94,14.53c-.23,3.51-.45,7-.68,10.54-.46,7.2-.9,14.62,1.48,21.43"/><path class="cls-6" d="M146,268.29l.12,2.9q1.35,32.06,1.34,64.12l90.69,10.35a217.16,217.16,0,0,1,5.32-65.38"/><path class="cls-6" d="M266.58,292A67.79,67.79,0,0,0,291,259.05"/><path class="cls-6" d="M245.42,312.22c2,3,4.06,6,6.87,8.32s6.54,3.67,10.06,2.86a17.66,17.66,0,0,0,6.21-3.33c10-7.24,19.91-14.79,27.8-24.27s13.67-21.16,14.08-33.48"/><path class="cls-6" d="M291.67,258.46c2.2,1.81,5.1,2.44,7.89,3,2.55.53,8.28.63,10.88.84"/><path class="cls-7" d="M291.46,258c.39-2.67.79-5.34,1.18-8a1.13,1.13,0,0,1,.23-.64c.31-.35.87-.22,1.31-.07,5.41,1.9,11.12,4,16.74,2.82"/><path class="cls-7" d="M311.13,252.15a47.92,47.92,0,0,1,.4,8.88"/><path class="cls-7" d="M295.17,252.91a3.52,3.52,0,0,0-.13,3.52"/><path class="cls-7" d="M298.64,254.52a13.8,13.8,0,0,0,1.11,3.3"/><path class="cls-7" d="M302.94,256a4.58,4.58,0,0,0,.52,1.91"/><path class="cls-7" d="M307.52,256l.42,2.58"/><path class="cls-7" d="M291.6,235.19a46.81,46.81,0,0,1-1-7,9,9,0,0,1,.18-3.47,3,3,0,0,1,2.48-2.17c1.86.91,2.35,3.33,2.3,5.4s-.36,4.28.68,6.07a129.19,129.19,0,0,1,1.92-13.12,5.09,5.09,0,0,1,.91-2.37,1.81,1.81,0,0,1,2.29-.51,2.33,2.33,0,0,1,.78,1.29c1.21,4-.82,8.56.53,12.56A10.41,10.41,0,0,1,308,220.72a1.24,1.24,0,0,1,.78-.19,1.14,1.14,0,0,1,.68.54c1.26,1.84.91,4.32.26,6.45s-1.56,4.31-1.23,6.51a10,10,0,0,1,2.31-5.43c1.17-1.4,3.41-2.43,4.71-1.16a3,3,0,0,1,.35,3.26,33.85,33.85,0,0,1-1.8,3,15.86,15.86,0,0,0-1.4,6.6L312,252"/><path class="cls-7" d="M291.6,235.19a6.52,6.52,0,0,1,1.86,4.77A16.9,16.9,0,0,1,291.6,235.19Z"/><path class="cls-7" d="M292.23,248.48a37,37,0,0,1-4.65-10.17c-.45-1.58-.48-3.79,1.08-4.29a2.7,2.7,0,0,1,2.42.7,5.8,5.8,0,0,1,.52.47"/><path class="cls-8" d="M295.71,242.8a76.18,76.18,0,0,1,11.16,1.31"/><path class="cls-8" d="M298.8,244.12c2,1.38,4.09,3,4.37,5.43"/><path class="cls-8" d="M296.66,238.21a48.82,48.82,0,0,0,12.54,4.91"/><path class="cls-6" d="M113.69,298.76a183.41,183.41,0,0,0-6.29,31.38"/><path class="cls-6" d="M136,299.71A202.08,202.08,0,0,0,126.74,331h-.15q-9.59-.35-19.19-.3H107"/><path class="cls-6" d="M106.45,330.88a20.18,20.18,0,0,1,.52,7.38,1,1,0,0,0,.13.79.71.71,0,0,0,.14.1,1.32,1.32,0,0,0,.52.08l15.74.27a1.48,1.48,0,0,0,.6-.08,1.39,1.39,0,0,0,.62-1c.64-2.47,1.27-4.93,1.87-7.41l.12-.49"/><path class="cls-6" d="M106,341.14a24.69,24.69,0,0,0-5.18,10.73,1.31,1.31,0,0,0,0,.65c.22.71,1.28.59,1.93.22a8.41,8.41,0,0,0,3.77-4.49,39.39,39.39,0,0,0-1.89,6.39c-.44,2.15-.61,4.65.85,6.3a1.43,1.43,0,0,0,.76.52c.66.13,1.23-.49,1.57-1.08a9.7,9.7,0,0,0,1.17-6.22c1,3-.88,6.91,1.25,9.28a1.33,1.33,0,0,0,1.12.53,1.53,1.53,0,0,0,.86-.73,16.79,16.79,0,0,0,2.89-9.91c.67,1.35.43,2.95.36,4.47s.15,3.23,1.38,4.12a6,6,0,0,0,3.45-4.74,17.89,17.89,0,0,0-.41-6.09l3.17,3a1.79,1.79,0,0,0,1.15.62c.72,0,1.09-.85,1.25-1.55a16.73,16.73,0,0,0-1.6-11.63"/><path class="cls-9" d="M147.5,335.31c-1.26,20.08-1.08,44.58-1.52,64.69"/><path class="cls-9" d="M238.19,345.66c2,9.52,2.4,21.2,1.64,30.91-.58,7.39-1.86,16.34.31,23.43"/><path class="cls-9" d="M191.26,376.33c-.61,8.18-2.23,15.88-2.27,24.08,0-.45,0-.9,0-1.35"/><path class="cls-9" d="M191.26,376.33A104,104,0,0,1,199,400.49"/><path class="cls-3" d="M186.86,156c3.22,0,3.22-5,0-5s-3.22,5,0,5Z"/><path class="cls-3" d="M222.1,156.36c3.21,0,3.22-5,0-5s-3.23,5,0,5Z"/><path class="cls-2" d="M185.68,200.7a5.33,5.33,0,0,0-2.66,2.94l4.67-2.53a11.91,11.91,0,0,1-2.73,3.42,2.39,2.39,0,0,1,1.88-2.37l-.78,1.46c1.21-2,4.24-2.81,4.64-5.13a9.17,9.17,0,0,1-4.95,2.23.88.88,0,0,1-.66-.12,1,1,0,0,1-.23-.6,3.73,3.73,0,0,0-2.58-2.83,24.61,24.61,0,0,0,7.83,2.57,41.49,41.49,0,0,0-4.18-1.48l1.27.92a55.9,55.9,0,0,0-8.71-3.48,7.82,7.82,0,0,0,3.07,2.06,19.68,19.68,0,0,0-4.67-2.35,1.25,1.25,0,0,0,.85.54,10.78,10.78,0,0,0-4.34-2.33c-1.64-.44-3.82-.23-4.44,1.35a4.21,4.21,0,0,0-.18,1.66c.13,4.82.45,10.12,3.76,13.64,1.37,1.46,3.65,2.5,5.34,1.44.9-.56,1.4-1.56,2.15-2.3a10.9,10.9,0,0,1,2.31-1.59,29.59,29.59,0,0,0,10-9.63c-4.06-1.25-8.56-1-12.38-2.87-2.23-1.09-4.27-2.9-6.75-2.93a5.72,5.72,0,0,0-5.1,3.41,7.43,7.43,0,0,0,.3,6.28,16.41,16.41,0,0,1,2.44-4.21,7.22,7.22,0,0,1,1.45,3.77,12.39,12.39,0,0,0,1.17-3l.85,7.18,1.35-3,.83,5a25.25,25.25,0,0,0,1.13-5.14l.63,1.78a8.61,8.61,0,0,1,1.7-3.13,6.31,6.31,0,0,1-.19,3.89c-.29-1.29.74-2.71.19-3.92-.42-.95-1.59-1.26-2.57-1.61a10.28,10.28,0,0,1-4.38-3.08c3.43,1,6.82,2.12,10.15,3.42"/><path class="cls-10" d="M184.42,198.54a8.25,8.25,0,0,0-3.81,4.43c-.88,2.16,1.94,3.77,3.67,2.83l4.67-2.53-3.42-3.42a10.79,10.79,0,0,1-2.34,2.91l4.27,1.77s0,0,0,0l-2.82-3.67-.78,1.45a2.5,2.5,0,0,0,4.32,2.53,13.33,13.33,0,0,1,2.58-2.23,6.5,6.5,0,0,0,2.31-3.5,2.52,2.52,0,0,0-4.18-2.43,6.64,6.64,0,0,1-1.8,1.1,6.55,6.55,0,0,1-.89.27l-.38.09c-.48.09-.52.09-.1,0l1.49,1.15c-.17-.29-.26-.89-.42-1.24a6.56,6.56,0,0,0-1-1.51,6.65,6.65,0,0,0-2.89-1.83c-2.67-.91-4.45,3.27-1.93,4.57a28,28,0,0,0,8.42,2.82,2.5,2.5,0,0,0,1.33-4.82c-1.37-.56-2.76-1.05-4.18-1.48a2.5,2.5,0,0,0-3,1.45,2.55,2.55,0,0,0,1,3.12l1.27.91,2.52-4.31a62.36,62.36,0,0,0-9.31-3.73c-2.45-.75-4.11,2.44-2.43,4.18a11.41,11.41,0,0,0,4.17,2.7,2.48,2.48,0,0,0,3-1.45,2.53,2.53,0,0,0-1-3.12,24.07,24.07,0,0,0-5.26-2.6,2.53,2.53,0,0,0-2.83,1.15,2.6,2.6,0,0,0,.39,3,3.94,3.94,0,0,0,2,1.18c2.29.65,4.38-2.52,2.43-4.18-2.84-2.42-7.62-4.69-11.15-2.26-2.13,1.47-2.13,3.86-2,6.2a41.79,41.79,0,0,0,.65,6.12c.77,3.89,2.82,8.13,6.65,9.79a5.89,5.89,0,0,0,6.31-.75,25,25,0,0,0,1.73-2,11.54,11.54,0,0,1,2.44-1.63,32.79,32.79,0,0,0,10.35-10.22,2.53,2.53,0,0,0-1.5-3.67c-3.17-.94-6.51-1-9.7-1.89-2.94-.79-5.21-3-8.16-3.74a8,8,0,0,0-8.48,3.22c-2.16,2.95-1.91,6.81-.4,10a2.46,2.46,0,0,0,2.49,1.2,2.59,2.59,0,0,0,2.07-1.79,13.77,13.77,0,0,1,1.8-3.11l-3.92-.5a5.28,5.28,0,0,1,1.1,2.5,2.61,2.61,0,0,0,1.84,2.41,2.51,2.51,0,0,0,2.82-1.15,17.23,17.23,0,0,0,1.42-3.58l-4.91-.67.85,7.18a2.6,2.6,0,0,0,1.84,2.41,2.51,2.51,0,0,0,2.82-1.14l1.34-3-4.57-.59.84,5c.44,2.6,4.13,2.15,4.82,0a30.23,30.23,0,0,0,1.22-5.8l-4.91.66.62,1.79a2.53,2.53,0,0,0,4.83,0,6.28,6.28,0,0,1,1.05-2l-4.17-1.1a4.27,4.27,0,0,1-.19,2.57h4.82a5.42,5.42,0,0,1,.27-1,5.88,5.88,0,0,0,.08-2.21,4.48,4.48,0,0,0-2.25-3.13c-.9-.53-2-.73-2.87-1.21a8.63,8.63,0,0,1-2.63-2.14L172.3,199q5.16,1.47,10.16,3.42a2.52,2.52,0,0,0,3.07-1.74,2.56,2.56,0,0,0-1.75-3.08q-5-1.95-10.15-3.42c-2.53-.73-4,2.37-2.43,4.18a13.42,13.42,0,0,0,5.63,3.77,5.36,5.36,0,0,0,.89.36c.36,0-.17-.13-.15-.15-.58.87-.38,2.57-.25,3.53a2.51,2.51,0,0,0,2.41,1.83,2.58,2.58,0,0,0,2.41-1.83,9.22,9.22,0,0,0,.19-5.23c-.41-1.7-3-2.58-4.18-1.1a13,13,0,0,0-2.35,4.24h4.83L180,202a2.51,2.51,0,0,0-4.91.67,23.77,23.77,0,0,1-1,4.47h4.82l-.83-5c-.35-2-3.73-2.52-4.57-.6l-1.35,3,4.66,1.26-.85-7.18a2.53,2.53,0,0,0-2.17-2.45A2.48,2.48,0,0,0,171,198a12.13,12.13,0,0,1-.91,2.39l4.65,1.26a10.26,10.26,0,0,0-1.79-5c-.82-1.15-2.84-1.88-3.92-.5a21.37,21.37,0,0,0-3.09,5.31l4.57-.6c-.79-1.65-.79-4,.73-5.22,1.74-1.43,3.62-.3,5.26.68a22,22,0,0,0,7.21,2.84c2.64.5,5.32.72,7.9,1.48l-1.49-3.67a27.16,27.16,0,0,1-8.38,8.32c-.79.5-1.63.93-2.39,1.48a12.67,12.67,0,0,0-2.24,2.27c-.29.34-.48.63-.87.66-.7.05-1.52-.7-1.95-1.15-2.39-2.49-2.77-6.36-2.94-9.63a10.71,10.71,0,0,1-.08-3.09c-.15.5-.2.05.08.15-.13-.05.32,0,.18,0,1.48-.18,3.24.78,4.42,1.78l2.44-4.17.25.1-2.43,4.18a18.39,18.39,0,0,1,4.06,2.1l1.93-4.57a5.66,5.66,0,0,1-2-1.41l-2.43,4.17a55.09,55.09,0,0,1,8.12,3.22,2.5,2.5,0,0,0,2.52-4.31l-1.27-.92-1.93,4.57c1.42.43,2.81.92,4.18,1.48l1.33-4.82a23.62,23.62,0,0,1-7.23-2.32l-1.92,4.57c.6.21.7.71.86,1.25a3.19,3.19,0,0,0,3.27,2.39,11.43,11.43,0,0,0,6.71-3l-4.18-2.43c-.12.56.13,0-.14.45.1-.17-.28.32-.32.36a9.36,9.36,0,0,1-1,.84,11.54,11.54,0,0,0-2.91,2.88l4.32,2.53.78-1.46a2.53,2.53,0,0,0-2.83-3.67,5,5,0,0,0-3.71,4.78c-.09,2.29,2.73,3.14,4.27,1.77a15.24,15.24,0,0,0,3.12-3.93,2.52,2.52,0,0,0-3.42-3.42l-4.67,2.53,3.67,2.82a3.07,3.07,0,0,1,1.51-1.44c2.85-1.5.33-5.82-2.52-4.32Z"/></svg>